<svg xmlns="http://www.w3.org/2000/svg" xmlns:xlink="http://www.w3.org/1999/xlink" width="500" zoomAndPan="magnify" viewBox="0 0 375 374.999991" height="500" preserveAspectRatio="xMidYMid meet" version="1.0"><defs><g/><clipPath id="1ae17d1345"><path d="M 71 191 L 96.71875 191 L 96.71875 219 L 71 219 Z M 71 191 " clip-rule="nonzero"/></clipPath><clipPath id="68c28c7e17"><path d="M 64 207 L 91 207 L 91 232.984375 L 64 232.984375 Z M 64 207 " clip-rule="nonzero"/></clipPath><clipPath id="afa85f9e86"><path d="M 66 219 L 83 219 L 83 232.984375 L 66 232.984375 Z M 66 219 " clip-rule="nonzero"/></clipPath><clipPath id="e02bbb863c"><path d="M 48.71875 185 L 55 185 L 55 192 L 48.71875 192 Z M 48.71875 185 " clip-rule="nonzero"/></clipPath><clipPath id="5afb62333a"><path d="M 60 175.234375 L 64 175.234375 L 64 179 L 60 179 Z M 60 175.234375 " clip-rule="nonzero"/></clipPath></defs><path fill="#f9ed32" d="M 73.917969 183.199219 C 74.335938 183.199219 74.734375 183.121094 75.121094 182.960938 C 75.503906 182.800781 75.84375 182.574219 76.136719 182.28125 C 76.433594 181.988281 76.660156 181.648438 76.820312 181.265625 C 76.980469 180.882812 77.058594 180.484375 77.058594 180.066406 C 77.058594 179.652344 76.980469 179.253906 76.820312 178.867188 C 76.660156 178.484375 76.433594 178.144531 76.140625 177.851562 C 75.847656 177.558594 75.507812 177.332031 75.125 177.171875 C 74.738281 177.011719 74.339844 176.933594 73.921875 176.933594 C 73.503906 176.929688 73.105469 177.011719 72.71875 177.167969 C 72.335938 177.328125 71.996094 177.554688 71.699219 177.847656 C 71.40625 178.140625 71.175781 178.476562 71.019531 178.863281 C 70.859375 179.246094 70.777344 179.644531 70.777344 180.058594 C 70.777344 180.476562 70.855469 180.875 71.015625 181.257812 C 71.175781 181.644531 71.402344 181.984375 71.695312 182.277344 C 71.992188 182.570312 72.332031 182.796875 72.714844 182.957031 C 73.101562 183.117188 73.5 183.199219 73.917969 183.199219 Z M 73.917969 183.199219 " fill-opacity="0.78" fill-rule="evenodd"/><path fill="#662d91" d="M 89.136719 185.613281 C 90.875 187.625 91.96875 189.941406 92.421875 192.558594 C 93.058594 196.273438 92.085938 199.714844 92.769531 202.023438 C 92.929688 202.542969 93.140625 203.039062 93.410156 203.507812 C 93.089844 203.695312 92.761719 203.859375 92.425781 204.007812 C 92.085938 204.15625 91.742188 204.285156 91.390625 204.390625 C 91.039062 204.5 90.679688 204.585938 90.316406 204.652344 C 89.957031 204.71875 89.589844 204.765625 89.222656 204.792969 C 88.855469 204.816406 88.488281 204.820312 88.117188 204.804688 C 87.75 204.785156 87.382812 204.75 87.019531 204.691406 C 86.65625 204.632812 86.296875 204.550781 85.941406 204.453125 C 85.589844 204.351562 85.238281 204.230469 84.898438 204.089844 C 84.558594 203.953125 84.226562 203.792969 83.902344 203.613281 C 83.582031 203.4375 83.269531 203.242188 82.96875 203.027344 C 82.667969 202.816406 82.382812 202.585938 82.109375 202.339844 C 81.835938 202.09375 81.578125 201.832031 81.332031 201.554688 C 81.089844 201.277344 80.863281 200.988281 80.652344 200.6875 C 80.441406 200.386719 80.25 200.074219 80.074219 199.75 C 79.902344 199.425781 79.746094 199.09375 79.609375 198.75 C 79.476562 198.410156 79.359375 198.058594 79.261719 197.707031 C 79.167969 197.351562 79.09375 196.992188 79.039062 196.628906 C 78.984375 196.261719 78.949219 195.898438 78.9375 195.53125 C 78.925781 195.164062 78.933594 194.796875 78.964844 194.429688 C 78.992188 194.0625 79.042969 193.699219 79.117188 193.339844 C 79.1875 192.976562 79.277344 192.621094 79.390625 192.273438 C 79.503906 191.921875 79.636719 191.582031 79.789062 191.246094 C 79.941406 190.910156 80.109375 190.585938 80.300781 190.269531 C 80.488281 189.953125 80.695312 189.652344 80.921875 189.359375 C 81.144531 189.066406 81.386719 188.789062 81.640625 188.523438 C 81.898438 188.261719 82.167969 188.011719 82.453125 187.777344 C 82.738281 187.546875 83.035156 187.328125 83.347656 187.128906 C 83.65625 186.929688 83.976562 186.75 84.308594 186.589844 C 84.636719 186.425781 84.976562 186.28125 85.324219 186.160156 C 85.671875 186.035156 86.023438 185.929688 86.382812 185.847656 C 86.742188 185.765625 87.105469 185.703125 87.472656 185.660156 C 87.835938 185.621094 88.203125 185.597656 88.574219 185.597656 C 88.753906 185.597656 88.945312 185.605469 89.136719 185.613281 Z M 89.136719 185.613281 " fill-opacity="0.78" fill-rule="evenodd"/><g clip-path="url(#1ae17d1345)"><path fill="#92278f" d="M 92.609375 194.195312 C 92.8125 197.269531 92.1875 200.054688 92.769531 202.03125 C 93.761719 205.40625 98.164062 208.464844 96.109375 210.199219 C 95.457031 210.722656 94.335938 210.753906 93.679688 211.265625 C 92.632812 212.082031 93.347656 212.960938 93.441406 213.59375 C 93.484375 213.898438 93.210938 214.382812 92.308594 214.96875 C 92.992188 215.472656 92.929688 215.898438 92.683594 216.289062 C 92.015625 216.746094 91.3125 217.140625 90.574219 217.46875 C 89.835938 217.796875 89.074219 218.058594 88.289062 218.25 C 87.503906 218.441406 86.707031 218.5625 85.898438 218.609375 C 85.089844 218.65625 84.285156 218.628906 83.484375 218.53125 C 82.679688 218.433594 81.890625 218.265625 81.121094 218.023438 C 80.347656 217.785156 79.601562 217.476562 78.886719 217.101562 C 78.171875 216.726562 77.492188 216.289062 76.855469 215.792969 C 76.21875 215.296875 75.632812 214.746094 75.09375 214.144531 C 74.558594 213.539062 74.078125 212.894531 73.660156 212.203125 C 73.242188 211.511719 72.886719 210.792969 72.597656 210.039062 C 72.308594 209.285156 72.089844 208.511719 71.941406 207.71875 C 71.792969 206.921875 71.71875 206.125 71.714844 205.316406 C 71.714844 204.507812 71.785156 203.710938 71.925781 202.914062 C 72.070312 202.121094 72.28125 201.34375 72.566406 200.589844 C 72.847656 199.835938 73.199219 199.109375 73.613281 198.417969 C 74.027344 197.722656 74.503906 197.074219 75.035156 196.46875 C 75.570312 195.859375 76.152344 195.308594 76.785156 194.804688 C 77.417969 194.304688 78.09375 193.863281 78.808594 193.484375 C 79.519531 193.105469 80.261719 192.789062 81.035156 192.546875 C 81.804688 192.300781 82.589844 192.125 83.394531 192.023438 C 84.195312 191.917969 85 191.886719 85.808594 191.929688 C 86.617188 191.972656 87.414062 192.085938 88.199219 192.273438 C 88.988281 192.457031 89.753906 192.714844 90.492188 193.039062 C 91.234375 193.363281 91.9375 193.75 92.609375 194.203125 Z M 92.609375 194.195312 " fill-opacity="0.78" fill-rule="evenodd"/></g><g clip-path="url(#68c28c7e17)"><path fill="#007fc6" d="M 89.742188 223.714844 C 84.652344 225.78125 77.84375 218.851562 76.925781 232.984375 C 73.617188 230.820312 70.113281 229.039062 66.410156 227.648438 C 66.105469 227.199219 65.828125 226.734375 65.582031 226.25 C 65.335938 225.769531 65.117188 225.273438 64.933594 224.761719 C 64.75 224.253906 64.597656 223.734375 64.476562 223.207031 C 64.355469 222.679688 64.269531 222.144531 64.21875 221.605469 C 64.164062 221.066406 64.148438 220.523438 64.164062 219.984375 C 64.175781 219.441406 64.226562 218.902344 64.308594 218.367188 C 64.390625 217.832031 64.507812 217.304688 64.65625 216.785156 C 64.804688 216.261719 64.988281 215.753906 65.199219 215.253906 C 65.414062 214.757812 65.65625 214.273438 65.929688 213.804688 C 66.203125 213.335938 66.507812 212.886719 66.835938 212.457031 C 67.167969 212.027344 67.523438 211.617188 67.902344 211.234375 C 68.285156 210.847656 68.6875 210.488281 69.117188 210.152344 C 69.542969 209.816406 69.988281 209.507812 70.453125 209.230469 C 70.917969 208.949219 71.398438 208.699219 71.894531 208.480469 C 72.394531 208.261719 72.902344 208.070312 73.421875 207.917969 C 73.941406 207.761719 74.46875 207.636719 75.003906 207.546875 C 75.539062 207.457031 76.078125 207.398438 76.621094 207.375 C 77.164062 207.355469 77.707031 207.363281 78.246094 207.410156 C 78.789062 207.453125 79.324219 207.53125 79.855469 207.644531 C 80.390625 207.757812 80.910156 207.902344 81.425781 208.078125 C 81.9375 208.253906 82.4375 208.460938 82.925781 208.703125 C 83.414062 208.941406 83.882812 209.210938 84.335938 209.507812 C 84.789062 209.808594 85.222656 210.132812 85.636719 210.484375 C 86.046875 210.835938 86.4375 211.214844 86.804688 211.613281 C 87.167969 212.015625 87.507812 212.4375 87.820312 212.878906 C 88.132812 213.324219 88.414062 213.785156 88.671875 214.261719 C 88.925781 214.742188 89.148438 215.234375 89.339844 215.742188 C 89.535156 216.246094 89.695312 216.765625 89.820312 217.289062 C 89.949219 217.816406 90.042969 218.351562 90.105469 218.886719 C 90.167969 219.425781 90.195312 219.964844 90.1875 220.507812 C 90.179688 221.050781 90.140625 221.589844 90.066406 222.125 C 89.992188 222.664062 89.882812 223.191406 89.742188 223.714844 Z M 89.742188 223.714844 " fill-opacity="0.78" fill-rule="evenodd"/></g><g clip-path="url(#afa85f9e86)"><path fill="#01a6e6" d="M 82.273438 223.789062 C 79.585938 223.902344 77.414062 225.445312 76.925781 232.984375 C 73.636719 230.832031 70.152344 229.058594 66.472656 227.667969 C 66.496094 226.746094 66.664062 225.851562 66.980469 224.984375 C 67.300781 224.117188 67.746094 223.324219 68.328125 222.605469 C 68.90625 221.882812 69.585938 221.277344 70.367188 220.78125 C 71.148438 220.285156 71.984375 219.925781 72.882812 219.703125 C 73.785156 219.484375 74.695312 219.410156 75.617188 219.492188 C 76.539062 219.570312 77.421875 219.792969 78.269531 220.160156 C 79.121094 220.53125 79.886719 221.023438 80.570312 221.644531 C 81.257812 222.265625 81.824219 222.980469 82.273438 223.789062 Z M 82.273438 223.789062 " fill-opacity="0.78" fill-rule="evenodd"/></g><path fill="#2063b2" d="M 94.566406 210.832031 C 94.246094 210.925781 93.953125 211.066406 93.679688 211.257812 C 92.632812 212.070312 93.347656 212.953125 93.441406 213.585938 C 93.484375 213.890625 93.210938 214.375 92.308594 214.960938 C 93.351562 215.730469 92.648438 216.320312 92.230469 216.886719 C 90.273438 218.296875 92.996094 221.34375 89.765625 223.707031 C 86.507812 225.046875 82.546875 222.683594 79.871094 224.496094 C 79.785156 224.007812 79.730469 223.519531 79.707031 223.023438 C 79.683594 222.527344 79.691406 222.035156 79.726562 221.539062 C 79.765625 221.046875 79.835938 220.554688 79.933594 220.070312 C 80.03125 219.585938 80.160156 219.105469 80.320312 218.636719 C 80.476562 218.167969 80.664062 217.710938 80.878906 217.261719 C 81.09375 216.816406 81.335938 216.386719 81.605469 215.96875 C 81.875 215.550781 82.167969 215.152344 82.488281 214.773438 C 82.804688 214.394531 83.148438 214.035156 83.511719 213.695312 C 83.875 213.359375 84.257812 213.042969 84.660156 212.753906 C 85.0625 212.464844 85.480469 212.199219 85.914062 211.960938 C 86.351562 211.722656 86.800781 211.511719 87.261719 211.328125 C 87.722656 211.144531 88.191406 210.992188 88.675781 210.867188 C 89.15625 210.742188 89.640625 210.648438 90.132812 210.582031 C 90.625 210.519531 91.121094 210.484375 91.617188 210.480469 C 92.113281 210.480469 92.609375 210.507812 93.101562 210.566406 C 93.597656 210.621094 94.082031 210.710938 94.566406 210.828125 Z M 94.566406 210.832031 " fill-opacity="0.78" fill-rule="evenodd"/><path fill="#12bcbc" d="M 56.726562 210.984375 C 57.03125 210.984375 57.335938 210.957031 57.636719 210.894531 C 57.933594 210.835938 58.226562 210.75 58.507812 210.632812 C 58.789062 210.515625 59.058594 210.371094 59.3125 210.203125 C 59.566406 210.035156 59.800781 209.84375 60.019531 209.625 C 60.234375 209.410156 60.425781 209.175781 60.597656 208.921875 C 60.765625 208.667969 60.910156 208.402344 61.027344 208.121094 C 61.144531 207.839844 61.234375 207.550781 61.292969 207.25 C 61.351562 206.949219 61.382812 206.648438 61.382812 206.34375 C 61.382812 206.039062 61.351562 205.738281 61.292969 205.4375 C 61.234375 205.140625 61.144531 204.851562 61.027344 204.566406 C 60.910156 204.285156 60.769531 204.019531 60.597656 203.765625 C 60.429688 203.511719 60.234375 203.277344 60.019531 203.0625 C 59.804688 202.847656 59.566406 202.652344 59.3125 202.484375 C 59.058594 202.316406 58.792969 202.171875 58.507812 202.054688 C 58.226562 201.9375 57.9375 201.851562 57.636719 201.792969 C 57.335938 201.730469 57.035156 201.703125 56.730469 201.703125 C 56.421875 201.703125 56.121094 201.734375 55.820312 201.792969 C 55.519531 201.851562 55.230469 201.941406 54.949219 202.054688 C 54.664062 202.171875 54.398438 202.316406 54.144531 202.484375 C 53.890625 202.65625 53.65625 202.847656 53.4375 203.0625 C 53.222656 203.277344 53.03125 203.511719 52.859375 203.765625 C 52.691406 204.019531 52.546875 204.289062 52.429688 204.570312 C 52.3125 204.851562 52.226562 205.140625 52.164062 205.441406 C 52.105469 205.738281 52.078125 206.039062 52.078125 206.347656 C 52.078125 206.648438 52.109375 206.953125 52.167969 207.25 C 52.226562 207.546875 52.316406 207.839844 52.433594 208.121094 C 52.550781 208.402344 52.695312 208.667969 52.863281 208.921875 C 53.03125 209.171875 53.226562 209.40625 53.441406 209.625 C 53.65625 209.839844 53.890625 210.03125 54.144531 210.199219 C 54.398438 210.367188 54.667969 210.511719 54.949219 210.628906 C 55.230469 210.746094 55.523438 210.835938 55.820312 210.894531 C 56.121094 210.953125 56.421875 210.984375 56.726562 210.984375 Z M 56.726562 210.984375 " fill-opacity="0.78" fill-rule="evenodd"/><path fill="#00b9f1" d="M 66.472656 217.445312 C 66.75 217.445312 67.027344 217.417969 67.300781 217.367188 C 67.574219 217.3125 67.839844 217.234375 68.097656 217.125 C 68.355469 217.019531 68.601562 216.890625 68.832031 216.738281 C 69.066406 216.582031 69.28125 216.410156 69.476562 216.210938 C 69.675781 216.015625 69.851562 215.800781 70.007812 215.570312 C 70.164062 215.339844 70.292969 215.097656 70.402344 214.839844 C 70.507812 214.582031 70.589844 214.320312 70.644531 214.046875 C 70.699219 213.773438 70.726562 213.496094 70.726562 213.21875 C 70.726562 212.941406 70.703125 212.667969 70.648438 212.394531 C 70.59375 212.121094 70.515625 211.855469 70.40625 211.597656 C 70.300781 211.339844 70.171875 211.097656 70.015625 210.867188 C 69.863281 210.632812 69.6875 210.417969 69.488281 210.222656 C 69.292969 210.027344 69.078125 209.851562 68.847656 209.695312 C 68.613281 209.539062 68.371094 209.410156 68.113281 209.304688 C 67.855469 209.195312 67.589844 209.117188 67.316406 209.0625 C 67.042969 209.007812 66.765625 208.980469 66.488281 208.980469 C 66.210938 208.980469 65.933594 209.003906 65.660156 209.058594 C 65.386719 209.113281 65.121094 209.195312 64.863281 209.300781 C 64.605469 209.40625 64.359375 209.535156 64.128906 209.691406 C 63.898438 209.84375 63.683594 210.019531 63.484375 210.21875 C 63.289062 210.414062 63.113281 210.628906 62.957031 210.859375 C 62.800781 211.089844 62.671875 211.335938 62.5625 211.589844 C 62.457031 211.847656 62.375 212.113281 62.320312 212.386719 C 62.269531 212.660156 62.242188 212.933594 62.242188 213.210938 C 62.242188 213.488281 62.269531 213.761719 62.324219 214.035156 C 62.378906 214.308594 62.457031 214.570312 62.566406 214.828125 C 62.671875 215.082031 62.800781 215.328125 62.957031 215.558594 C 63.109375 215.789062 63.285156 216.003906 63.480469 216.199219 C 63.679688 216.394531 63.890625 216.570312 64.121094 216.726562 C 64.351562 216.878906 64.597656 217.011719 64.851562 217.117188 C 65.109375 217.222656 65.375 217.304688 65.648438 217.359375 C 65.917969 217.414062 66.195312 217.445312 66.472656 217.445312 Z M 66.472656 217.445312 " fill-opacity="0.78" fill-rule="evenodd"/><path fill="#8dc63f" d="M 56.058594 199.691406 C 56.492188 199.691406 56.90625 199.609375 57.304688 199.441406 C 57.707031 199.277344 58.058594 199.042969 58.363281 198.738281 C 58.667969 198.433594 58.90625 198.082031 59.070312 197.683594 C 59.234375 197.285156 59.320312 196.871094 59.320312 196.4375 C 59.320312 196.007812 59.234375 195.59375 59.070312 195.195312 C 58.90625 194.796875 58.667969 194.441406 58.363281 194.136719 C 58.058594 193.832031 57.703125 193.597656 57.304688 193.433594 C 56.90625 193.269531 56.488281 193.1875 56.058594 193.1875 C 55.625 193.1875 55.207031 193.269531 54.808594 193.433594 C 54.410156 193.601562 54.058594 193.835938 53.75 194.140625 C 53.445312 194.445312 53.210938 194.796875 53.046875 195.195312 C 52.878906 195.59375 52.796875 196.007812 52.796875 196.441406 C 52.796875 196.871094 52.882812 197.285156 53.046875 197.683594 C 53.214844 198.082031 53.449219 198.433594 53.753906 198.738281 C 54.058594 199.042969 54.414062 199.277344 54.8125 199.441406 C 55.210938 199.609375 55.625 199.691406 56.058594 199.691406 Z M 56.058594 199.691406 " fill-opacity="0.78" fill-rule="evenodd"/><g clip-path="url(#e02bbb863c)"><path fill="#ffd900" d="M 54.433594 188.359375 C 54.433594 188.730469 54.359375 189.089844 54.21875 189.4375 C 54.074219 189.78125 53.871094 190.085938 53.605469 190.351562 C 53.339844 190.613281 53.035156 190.816406 52.691406 190.960938 C 52.34375 191.101562 51.984375 191.175781 51.609375 191.175781 C 51.234375 191.175781 50.875 191.101562 50.527344 190.960938 C 50.183594 190.816406 49.878906 190.613281 49.613281 190.351562 C 49.347656 190.085938 49.144531 189.78125 49 189.4375 C 48.859375 189.089844 48.785156 188.730469 48.785156 188.359375 C 48.785156 187.984375 48.859375 187.625 49 187.28125 C 49.144531 186.9375 49.347656 186.632812 49.613281 186.367188 C 49.878906 186.101562 50.183594 185.898438 50.527344 185.757812 C 50.875 185.613281 51.234375 185.542969 51.609375 185.542969 C 51.984375 185.542969 52.34375 185.613281 52.691406 185.757812 C 53.035156 185.898438 53.339844 186.101562 53.605469 186.367188 C 53.871094 186.632812 54.074219 186.9375 54.21875 187.28125 C 54.359375 187.625 54.433594 187.984375 54.433594 188.359375 Z M 54.433594 188.359375 " fill-opacity="0.78" fill-rule="nonzero"/></g><path fill="#009444" d="M 57.574219 183.199219 C 57.921875 183.199219 58.257812 183.132812 58.582031 183 C 58.90625 182.867188 59.191406 182.675781 59.4375 182.429688 C 59.6875 182.183594 59.875 181.898438 60.011719 181.578125 C 60.144531 181.253906 60.210938 180.921875 60.210938 180.570312 C 60.210938 180.222656 60.144531 179.886719 60.011719 179.566406 C 59.878906 179.242188 59.6875 178.957031 59.441406 178.710938 C 59.191406 178.464844 58.90625 178.273438 58.585938 178.140625 C 58.261719 178.007812 57.925781 177.941406 57.578125 177.941406 C 57.226562 177.941406 56.890625 178.007812 56.566406 178.140625 C 56.246094 178.273438 55.960938 178.464844 55.710938 178.710938 C 55.464844 178.957031 55.273438 179.242188 55.140625 179.5625 C 55.007812 179.886719 54.941406 180.222656 54.941406 180.570312 C 54.941406 180.917969 55.007812 181.253906 55.140625 181.574219 C 55.273438 181.898438 55.464844 182.179688 55.710938 182.425781 C 55.960938 182.671875 56.242188 182.863281 56.566406 182.996094 C 56.890625 183.132812 57.222656 183.199219 57.574219 183.199219 Z M 57.574219 183.199219 " fill-opacity="0.78" fill-rule="evenodd"/><path fill="#56ba48" d="M 58.46875 189.75 C 58.699219 189.75 58.921875 189.707031 59.132812 189.621094 C 59.347656 189.53125 59.535156 189.40625 59.699219 189.242188 C 59.863281 189.082031 59.988281 188.890625 60.078125 188.679688 C 60.164062 188.464844 60.210938 188.246094 60.210938 188.015625 C 60.210938 187.785156 60.164062 187.5625 60.078125 187.351562 C 59.988281 187.136719 59.863281 186.949219 59.699219 186.785156 C 59.535156 186.625 59.347656 186.5 59.132812 186.410156 C 58.921875 186.324219 58.699219 186.277344 58.46875 186.277344 C 58.238281 186.277344 58.015625 186.324219 57.800781 186.410156 C 57.589844 186.5 57.402344 186.625 57.238281 186.785156 C 57.074219 186.949219 56.949219 187.136719 56.859375 187.351562 C 56.773438 187.5625 56.726562 187.785156 56.726562 188.015625 C 56.726562 188.246094 56.773438 188.464844 56.859375 188.679688 C 56.949219 188.890625 57.074219 189.078125 57.238281 189.242188 C 57.402344 189.40625 57.589844 189.53125 57.804688 189.617188 C 58.015625 189.707031 58.238281 189.75 58.46875 189.75 Z M 58.46875 189.75 " fill-opacity="0.78" fill-rule="evenodd"/><g clip-path="url(#5afb62333a)"><path fill="#fbad17" d="M 62.097656 178.707031 C 62.332031 178.707031 62.550781 178.664062 62.765625 178.578125 C 62.980469 178.488281 63.167969 178.363281 63.332031 178.199219 C 63.492188 178.039062 63.621094 177.851562 63.707031 177.636719 C 63.796875 177.425781 63.839844 177.203125 63.839844 176.972656 C 63.839844 176.742188 63.796875 176.519531 63.707031 176.308594 C 63.621094 176.09375 63.492188 175.90625 63.332031 175.746094 C 63.167969 175.582031 62.980469 175.457031 62.765625 175.367188 C 62.550781 175.28125 62.332031 175.234375 62.097656 175.234375 C 61.867188 175.234375 61.648438 175.28125 61.433594 175.367188 C 61.21875 175.457031 61.03125 175.582031 60.867188 175.746094 C 60.707031 175.90625 60.578125 176.09375 60.492188 176.308594 C 60.402344 176.519531 60.359375 176.742188 60.359375 176.972656 C 60.359375 177.203125 60.402344 177.421875 60.492188 177.636719 C 60.582031 177.847656 60.707031 178.035156 60.871094 178.199219 C 61.03125 178.363281 61.222656 178.488281 61.433594 178.574219 C 61.648438 178.664062 61.867188 178.707031 62.097656 178.707031 Z M 62.097656 178.707031 " fill-opacity="0.78" fill-rule="evenodd"/></g><path fill="#f15c22" d="M 51.40625 182.578125 C 51.582031 182.578125 51.746094 182.546875 51.910156 182.476562 C 52.070312 182.410156 52.210938 182.316406 52.335938 182.191406 C 52.457031 182.066406 52.550781 181.925781 52.617188 181.765625 C 52.683594 181.601562 52.71875 181.4375 52.71875 181.261719 C 52.71875 181.085938 52.683594 180.921875 52.617188 180.757812 C 52.546875 180.597656 52.453125 180.457031 52.328125 180.332031 C 52.207031 180.210938 52.0625 180.117188 51.902344 180.050781 C 51.738281 179.984375 51.570312 179.949219 51.398438 179.949219 C 51.222656 179.953125 51.054688 179.984375 50.894531 180.050781 C 50.734375 180.117188 50.589844 180.214844 50.46875 180.335938 C 50.34375 180.460938 50.25 180.601562 50.183594 180.761719 C 50.113281 180.925781 50.082031 181.089844 50.082031 181.265625 C 50.082031 181.441406 50.117188 181.609375 50.183594 181.769531 C 50.25 181.929688 50.347656 182.074219 50.472656 182.195312 C 50.59375 182.320312 50.738281 182.414062 50.898438 182.480469 C 51.0625 182.546875 51.230469 182.582031 51.40625 182.578125 Z M 51.40625 182.578125 " fill-opacity="0.78" fill-rule="evenodd"/><path fill="#fbad17" d="M 82.730469 195.992188 C 82.730469 196.710938 82.660156 197.425781 82.519531 198.132812 C 82.378906 198.839844 82.171875 199.527344 81.894531 200.195312 C 81.617188 200.859375 81.277344 201.492188 80.875 202.09375 C 80.472656 202.691406 80.015625 203.246094 79.507812 203.757812 C 78.996094 204.269531 78.4375 204.722656 77.835938 205.125 C 77.234375 205.523438 76.601562 205.863281 75.933594 206.140625 C 75.265625 206.414062 74.578125 206.625 73.867188 206.765625 C 73.160156 206.90625 72.441406 206.976562 71.71875 206.976562 C 70.996094 206.976562 70.28125 206.90625 69.570312 206.765625 C 68.863281 206.625 68.171875 206.414062 67.503906 206.140625 C 66.835938 205.863281 66.203125 205.523438 65.601562 205.125 C 65 204.722656 64.445312 204.269531 63.933594 203.757812 C 63.421875 203.246094 62.964844 202.691406 62.5625 202.09375 C 62.160156 201.492188 61.820312 200.859375 61.546875 200.195312 C 61.269531 199.527344 61.058594 198.839844 60.917969 198.132812 C 60.777344 197.425781 60.707031 196.710938 60.707031 195.992188 C 60.707031 195.269531 60.777344 194.554688 60.917969 193.847656 C 61.058594 193.140625 61.269531 192.453125 61.546875 191.785156 C 61.820312 191.121094 62.160156 190.488281 62.5625 189.886719 C 62.964844 189.289062 63.421875 188.734375 63.933594 188.222656 C 64.445312 187.714844 65 187.257812 65.601562 186.855469 C 66.203125 186.457031 66.835938 186.117188 67.503906 185.84375 C 68.171875 185.566406 68.863281 185.359375 69.570312 185.21875 C 70.28125 185.078125 70.996094 185.007812 71.71875 185.007812 C 72.441406 185.007812 73.160156 185.078125 73.867188 185.21875 C 74.578125 185.359375 75.265625 185.566406 75.933594 185.84375 C 76.601562 186.117188 77.234375 186.457031 77.835938 186.855469 C 78.4375 187.257812 78.996094 187.714844 79.507812 188.222656 C 80.015625 188.734375 80.472656 189.289062 80.875 189.886719 C 81.277344 190.488281 81.617188 191.121094 81.894531 191.785156 C 82.171875 192.453125 82.378906 193.140625 82.519531 193.847656 C 82.660156 194.554688 82.730469 195.269531 82.730469 195.992188 Z M 82.730469 195.992188 " fill-opacity="0.78" fill-rule="nonzero"/><path fill="#ec008b" d="M 77.804688 179.363281 C 83.082031 180.449219 87.5 183.085938 90.109375 186.878906 C 90.0625 187.199219 90 187.519531 89.914062 187.832031 C 89.832031 188.144531 89.726562 188.453125 89.605469 188.753906 C 89.484375 189.054688 89.34375 189.347656 89.183594 189.628906 C 89.023438 189.914062 88.847656 190.183594 88.65625 190.445312 C 88.464844 190.707031 88.253906 190.957031 88.03125 191.191406 C 87.808594 191.429688 87.570312 191.648438 87.320312 191.855469 C 87.066406 192.0625 86.804688 192.253906 86.53125 192.425781 C 86.253906 192.601562 85.972656 192.757812 85.675781 192.894531 C 85.382812 193.035156 85.082031 193.15625 84.773438 193.257812 C 84.464844 193.359375 84.148438 193.441406 83.828125 193.503906 C 83.511719 193.566406 83.1875 193.605469 82.863281 193.628906 C 82.539062 193.652344 82.214844 193.65625 81.890625 193.636719 C 81.5625 193.621094 81.242188 193.582031 80.921875 193.527344 C 80.601562 193.46875 80.285156 193.390625 79.976562 193.292969 C 79.664062 193.199219 79.359375 193.082031 79.0625 192.949219 C 78.769531 192.816406 78.480469 192.664062 78.203125 192.492188 C 77.925781 192.324219 77.660156 192.136719 77.40625 191.9375 C 77.152344 191.734375 76.910156 191.515625 76.683594 191.285156 C 76.457031 191.050781 76.242188 190.804688 76.046875 190.546875 C 75.847656 190.289062 75.667969 190.019531 75.503906 189.738281 C 75.34375 189.457031 75.195312 189.167969 75.070312 188.871094 C 74.941406 188.570312 74.835938 188.265625 74.746094 187.953125 C 74.65625 187.640625 74.585938 187.324219 74.535156 187.003906 C 74.484375 186.683594 74.457031 186.363281 74.445312 186.035156 C 74.4375 185.710938 74.445312 185.386719 74.476562 185.066406 C 74.507812 184.742188 74.558594 184.421875 74.628906 184.105469 C 74.699219 183.789062 74.785156 183.476562 74.894531 183.171875 C 75.003906 182.863281 75.132812 182.566406 75.277344 182.277344 C 75.425781 181.988281 75.585938 181.707031 75.769531 181.4375 C 75.949219 181.167969 76.144531 180.910156 76.359375 180.664062 C 76.570312 180.417969 76.796875 180.1875 77.039062 179.96875 C 77.28125 179.75 77.535156 179.550781 77.804688 179.363281 Z M 77.804688 179.363281 " fill-opacity="0.78" fill-rule="evenodd"/><path fill="#56ba48" d="M 68.011719 191.175781 C 68.445312 191.175781 68.875 191.132812 69.296875 191.050781 C 69.722656 190.964844 70.136719 190.839844 70.535156 190.675781 C 70.9375 190.511719 71.316406 190.308594 71.675781 190.070312 C 72.035156 189.828125 72.371094 189.554688 72.675781 189.25 C 72.980469 188.945312 73.257812 188.613281 73.496094 188.253906 C 73.738281 187.894531 73.941406 187.515625 74.105469 187.117188 C 74.273438 186.71875 74.398438 186.304688 74.480469 185.882812 C 74.566406 185.460938 74.609375 185.03125 74.609375 184.597656 C 74.609375 184.167969 74.566406 183.738281 74.484375 183.316406 C 74.398438 182.890625 74.273438 182.480469 74.105469 182.082031 C 73.941406 181.683594 73.738281 181.304688 73.5 180.945312 C 73.257812 180.585938 72.984375 180.253906 72.679688 179.945312 C 72.371094 179.640625 72.039062 179.367188 71.679688 179.128906 C 71.320312 178.886719 70.9375 178.6875 70.539062 178.519531 C 70.136719 178.355469 69.726562 178.230469 69.300781 178.144531 C 68.875 178.0625 68.449219 178.019531 68.015625 178.019531 C 67.582031 178.019531 67.152344 178.0625 66.726562 178.144531 C 66.304688 178.230469 65.890625 178.355469 65.492188 178.519531 C 65.089844 178.683594 64.710938 178.886719 64.351562 179.128906 C 63.988281 179.367188 63.65625 179.640625 63.351562 179.945312 C 63.042969 180.25 62.769531 180.582031 62.53125 180.941406 C 62.289062 181.300781 62.085938 181.679688 61.921875 182.082031 C 61.753906 182.480469 61.628906 182.890625 61.546875 183.316406 C 61.460938 183.738281 61.417969 184.167969 61.417969 184.597656 C 61.417969 185.03125 61.460938 185.457031 61.546875 185.878906 C 61.632812 186.304688 61.757812 186.714844 61.921875 187.113281 C 62.089844 187.511719 62.292969 187.890625 62.535156 188.25 C 62.773438 188.609375 63.046875 188.941406 63.351562 189.246094 C 63.660156 189.550781 63.992188 189.824219 64.351562 190.0625 C 64.710938 190.304688 65.089844 190.507812 65.492188 190.671875 C 65.890625 190.835938 66.300781 190.964844 66.726562 191.046875 C 67.152344 191.132812 67.578125 191.175781 68.011719 191.175781 Z M 68.011719 191.175781 " fill-opacity="0.78" fill-rule="evenodd"/><g fill="#000000" fill-opacity="1"><g transform="translate(106.242543, 216.469747)"><g><path d="M 25.15625 0 L 25.125 -14.671875 L 17.921875 -2.578125 L 15.375 -2.578125 L 8.203125 -14.359375 L 8.203125 0 L 2.90625 0 L 2.90625 -24.453125 L 7.578125 -24.453125 L 16.734375 -9.265625 L 25.75 -24.453125 L 30.390625 -24.453125 L 30.46875 0 Z M 25.15625 0 "/></g></g></g><g fill="#000000" fill-opacity="1"><g transform="translate(141.386282, 216.469747)"><g><path d="M 2.515625 -18.796875 L 7.96875 -18.796875 L 7.96875 0 L 2.515625 0 Z M 5.234375 -21.421875 C 4.234375 -21.421875 3.414062 -21.707031 2.78125 -22.28125 C 2.15625 -22.863281 1.84375 -23.585938 1.84375 -24.453125 C 1.84375 -25.316406 2.15625 -26.039062 2.78125 -26.625 C 3.414062 -27.207031 4.234375 -27.5 5.234375 -27.5 C 6.234375 -27.5 7.046875 -27.21875 7.671875 -26.65625 C 8.304688 -26.09375 8.625 -25.394531 8.625 -24.5625 C 8.625 -23.65625 8.304688 -22.90625 7.671875 -22.3125 C 7.046875 -21.71875 6.234375 -21.421875 5.234375 -21.421875 Z M 5.234375 -21.421875 "/></g></g></g><g fill="#000000" fill-opacity="1"><g transform="translate(153.683439, 216.469747)"><g><path d="M 13.9375 -19.078125 C 16.269531 -19.078125 18.148438 -18.378906 19.578125 -16.984375 C 21.015625 -15.585938 21.734375 -13.515625 21.734375 -10.765625 L 21.734375 0 L 16.28125 0 L 16.28125 -9.921875 C 16.28125 -11.410156 15.953125 -12.519531 15.296875 -13.25 C 14.648438 -13.988281 13.707031 -14.359375 12.46875 -14.359375 C 11.09375 -14.359375 10 -13.929688 9.1875 -13.078125 C 8.375 -12.234375 7.96875 -10.972656 7.96875 -9.296875 L 7.96875 0 L 2.515625 0 L 2.515625 -18.796875 L 7.71875 -18.796875 L 7.71875 -16.59375 C 8.4375 -17.382812 9.332031 -17.992188 10.40625 -18.421875 C 11.476562 -18.859375 12.65625 -19.078125 13.9375 -19.078125 Z M 13.9375 -19.078125 "/></g></g></g><g fill="#000000" fill-opacity="1"><g transform="translate(179.604705, 216.469747)"><g><path d="M 10.09375 -19.078125 C 13.007812 -19.078125 15.242188 -18.382812 16.796875 -17 C 18.359375 -15.613281 19.140625 -13.519531 19.140625 -10.71875 L 19.140625 0 L 14.046875 0 L 14.046875 -2.34375 C 13.015625 -0.59375 11.101562 0.28125 8.3125 0.28125 C 6.875 0.28125 5.625 0.0351562 4.5625 -0.453125 C 3.5 -0.941406 2.6875 -1.613281 2.125 -2.46875 C 1.570312 -3.332031 1.296875 -4.316406 1.296875 -5.421875 C 1.296875 -7.160156 1.953125 -8.53125 3.265625 -9.53125 C 4.578125 -10.539062 6.609375 -11.046875 9.359375 -11.046875 L 13.703125 -11.046875 C 13.703125 -12.234375 13.335938 -13.144531 12.609375 -13.78125 C 11.890625 -14.425781 10.804688 -14.75 9.359375 -14.75 C 8.359375 -14.75 7.375 -14.585938 6.40625 -14.265625 C 5.445312 -13.953125 4.628906 -13.53125 3.953125 -13 L 1.984375 -16.8125 C 3.015625 -17.53125 4.242188 -18.085938 5.671875 -18.484375 C 7.109375 -18.878906 8.582031 -19.078125 10.09375 -19.078125 Z M 9.671875 -3.390625 C 10.609375 -3.390625 11.4375 -3.601562 12.15625 -4.03125 C 12.875 -4.46875 13.390625 -5.101562 13.703125 -5.9375 L 13.703125 -7.859375 L 9.953125 -7.859375 C 7.722656 -7.859375 6.609375 -7.125 6.609375 -5.65625 C 6.609375 -4.957031 6.878906 -4.40625 7.421875 -4 C 7.972656 -3.59375 8.722656 -3.390625 9.671875 -3.390625 Z M 9.671875 -3.390625 "/></g></g></g><g fill="#000000" fill-opacity="1"><g transform="translate(202.940878, 216.469747)"><g><path d="M 19.421875 -12.609375 L 24.59375 -12.609375 L 24.59375 -2.6875 C 23.269531 -1.6875 21.734375 -0.914062 19.984375 -0.375 C 18.234375 0.15625 16.472656 0.421875 14.703125 0.421875 C 12.171875 0.421875 9.890625 -0.117188 7.859375 -1.203125 C 5.835938 -2.285156 4.25 -3.785156 3.09375 -5.703125 C 1.9375 -7.628906 1.359375 -9.804688 1.359375 -12.234375 C 1.359375 -14.648438 1.9375 -16.816406 3.09375 -18.734375 C 4.25 -20.660156 5.847656 -22.164062 7.890625 -23.25 C 9.941406 -24.332031 12.25 -24.875 14.8125 -24.875 C 16.957031 -24.875 18.898438 -24.507812 20.640625 -23.78125 C 22.390625 -23.0625 23.859375 -22.015625 25.046875 -20.640625 L 21.421875 -17.296875 C 19.671875 -19.128906 17.5625 -20.046875 15.09375 -20.046875 C 13.53125 -20.046875 12.144531 -19.71875 10.9375 -19.0625 C 9.726562 -18.414062 8.785156 -17.5 8.109375 -16.3125 C 7.429688 -15.125 7.09375 -13.765625 7.09375 -12.234375 C 7.09375 -10.710938 7.429688 -9.359375 8.109375 -8.171875 C 8.785156 -6.984375 9.722656 -6.054688 10.921875 -5.390625 C 12.117188 -4.734375 13.484375 -4.40625 15.015625 -4.40625 C 16.648438 -4.40625 18.117188 -4.753906 19.421875 -5.453125 Z M 19.421875 -12.609375 "/></g></g></g><g fill="#000000" fill-opacity="1"><g transform="translate(231.656838, 216.469747)"><g><path d="M 2.515625 -25.921875 L 7.96875 -25.921875 L 7.96875 0 L 2.515625 0 Z M 2.515625 -25.921875 "/></g></g></g><g fill="#000000" fill-opacity="1"><g transform="translate(243.953994, 216.469747)"><g><path d="M 11.453125 0.28125 C 9.472656 0.28125 7.695312 -0.128906 6.125 -0.953125 C 4.550781 -1.785156 3.320312 -2.9375 2.4375 -4.40625 C 1.5625 -5.875 1.125 -7.535156 1.125 -9.390625 C 1.125 -11.253906 1.5625 -12.921875 2.4375 -14.390625 C 3.320312 -15.859375 4.550781 -17.003906 6.125 -17.828125 C 7.695312 -18.660156 9.472656 -19.078125 11.453125 -19.078125 C 13.429688 -19.078125 15.203125 -18.660156 16.765625 -17.828125 C 18.328125 -17.003906 19.550781 -15.859375 20.4375 -14.390625 C 21.320312 -12.921875 21.765625 -11.253906 21.765625 -9.390625 C 21.765625 -7.535156 21.320312 -5.875 20.4375 -4.40625 C 19.550781 -2.9375 18.328125 -1.785156 16.765625 -0.953125 C 15.203125 -0.128906 13.429688 0.28125 11.453125 0.28125 Z M 11.453125 -4.1875 C 12.859375 -4.1875 14.007812 -4.65625 14.90625 -5.59375 C 15.800781 -6.539062 16.25 -7.804688 16.25 -9.390625 C 16.25 -10.984375 15.800781 -12.25 14.90625 -13.1875 C 14.007812 -14.132812 12.859375 -14.609375 11.453125 -14.609375 C 10.054688 -14.609375 8.90625 -14.132812 8 -13.1875 C 7.09375 -12.25 6.640625 -10.984375 6.640625 -9.390625 C 6.640625 -7.804688 7.09375 -6.539062 8 -5.59375 C 8.90625 -4.65625 10.054688 -4.1875 11.453125 -4.1875 Z M 11.453125 -4.1875 "/></g></g></g><g fill="#000000" fill-opacity="1"><g transform="translate(268.617647, 216.469747)"><g><path d="M 13.625 -19.078125 C 15.375 -19.078125 16.960938 -18.675781 18.390625 -17.875 C 19.828125 -17.070312 20.953125 -15.941406 21.765625 -14.484375 C 22.578125 -13.023438 22.984375 -11.328125 22.984375 -9.390625 C 22.984375 -7.460938 22.578125 -5.769531 21.765625 -4.3125 C 20.953125 -2.851562 19.828125 -1.722656 18.390625 -0.921875 C 16.960938 -0.117188 15.375 0.28125 13.625 0.28125 C 11.039062 0.28125 9.070312 -0.535156 7.71875 -2.171875 L 7.71875 0 L 2.515625 0 L 2.515625 -25.921875 L 7.96875 -25.921875 L 7.96875 -16.8125 C 9.34375 -18.320312 11.226562 -19.078125 13.625 -19.078125 Z M 12.6875 -4.1875 C 14.082031 -4.1875 15.226562 -4.65625 16.125 -5.59375 C 17.019531 -6.539062 17.46875 -7.804688 17.46875 -9.390625 C 17.46875 -10.984375 17.019531 -12.25 16.125 -13.1875 C 15.226562 -14.132812 14.082031 -14.609375 12.6875 -14.609375 C 11.289062 -14.609375 10.140625 -14.132812 9.234375 -13.1875 C 8.335938 -12.25 7.890625 -10.984375 7.890625 -9.390625 C 7.890625 -7.804688 8.335938 -6.539062 9.234375 -5.59375 C 10.140625 -4.65625 11.289062 -4.1875 12.6875 -4.1875 Z M 12.6875 -4.1875 "/></g></g></g><g fill="#000000" fill-opacity="1"><g transform="translate(294.503975, 216.469747)"><g><path d="M 20.921875 -9.328125 C 20.921875 -9.253906 20.890625 -8.765625 20.828125 -7.859375 L 6.609375 -7.859375 C 6.859375 -6.691406 7.460938 -5.769531 8.421875 -5.09375 C 9.378906 -4.425781 10.566406 -4.09375 11.984375 -4.09375 C 12.960938 -4.09375 13.828125 -4.238281 14.578125 -4.53125 C 15.335938 -4.820312 16.046875 -5.28125 16.703125 -5.90625 L 19.59375 -2.765625 C 17.820312 -0.734375 15.238281 0.28125 11.84375 0.28125 C 9.726562 0.28125 7.851562 -0.128906 6.21875 -0.953125 C 4.582031 -1.785156 3.320312 -2.9375 2.4375 -4.40625 C 1.5625 -5.875 1.125 -7.535156 1.125 -9.390625 C 1.125 -11.234375 1.554688 -12.894531 2.421875 -14.375 C 3.296875 -15.851562 4.492188 -17.003906 6.015625 -17.828125 C 7.546875 -18.660156 9.253906 -19.078125 11.140625 -19.078125 C 12.984375 -19.078125 14.648438 -18.679688 16.140625 -17.890625 C 17.628906 -17.097656 18.796875 -15.960938 19.640625 -14.484375 C 20.492188 -13.003906 20.921875 -11.285156 20.921875 -9.328125 Z M 11.1875 -14.953125 C 9.945312 -14.953125 8.90625 -14.601562 8.0625 -13.90625 C 7.226562 -13.207031 6.71875 -12.253906 6.53125 -11.046875 L 15.796875 -11.046875 C 15.609375 -12.234375 15.09375 -13.179688 14.25 -13.890625 C 13.414062 -14.597656 12.394531 -14.953125 11.1875 -14.953125 Z M 11.1875 -14.953125 "/></g></g></g><g fill="#000000" fill-opacity="1"><g transform="translate(154.238117, 232.488593)"><g><path d="M 0.765625 -6.484375 L 2.265625 -6.484375 L 2.265625 0 L 0.765625 0 Z M 0.765625 -6.484375 "/></g></g></g><g fill="#000000" fill-opacity="1"><g transform="translate(159.188105, 232.488593)"><g><path d="M 6.71875 -6.484375 L 6.71875 0 L 5.484375 0 L 2.25 -3.9375 L 2.25 0 L 0.765625 0 L 0.765625 -6.484375 L 2.015625 -6.484375 L 5.234375 -2.546875 L 5.234375 -6.484375 Z M 6.71875 -6.484375 "/></g></g></g><g fill="#000000" fill-opacity="1"><g transform="translate(168.587527, 232.488593)"><g><path d="M 6.71875 -6.484375 L 6.71875 0 L 5.484375 0 L 2.25 -3.9375 L 2.25 0 L 0.765625 0 L 0.765625 -6.484375 L 2.015625 -6.484375 L 5.234375 -2.546875 L 5.234375 -6.484375 Z M 6.71875 -6.484375 "/></g></g></g><g fill="#000000" fill-opacity="1"><g transform="translate(177.98695, 232.488593)"><g><path d="M 3.90625 0.109375 C 3.238281 0.109375 2.632812 -0.0351562 2.09375 -0.328125 C 1.550781 -0.617188 1.125 -1.015625 0.8125 -1.515625 C 0.507812 -2.023438 0.359375 -2.601562 0.359375 -3.25 C 0.359375 -3.882812 0.507812 -4.453125 0.8125 -4.953125 C 1.125 -5.460938 1.550781 -5.863281 2.09375 -6.15625 C 2.632812 -6.445312 3.238281 -6.59375 3.90625 -6.59375 C 4.582031 -6.59375 5.1875 -6.445312 5.71875 -6.15625 C 6.257812 -5.863281 6.679688 -5.460938 6.984375 -4.953125 C 7.296875 -4.453125 7.453125 -3.882812 7.453125 -3.25 C 7.453125 -2.601562 7.296875 -2.023438 6.984375 -1.515625 C 6.679688 -1.015625 6.257812 -0.617188 5.71875 -0.328125 C 5.1875 -0.0351562 4.582031 0.109375 3.90625 0.109375 Z M 3.90625 -1.171875 C 4.289062 -1.171875 4.632812 -1.257812 4.9375 -1.4375 C 5.25 -1.613281 5.492188 -1.859375 5.671875 -2.171875 C 5.847656 -2.484375 5.9375 -2.84375 5.9375 -3.25 C 5.9375 -3.644531 5.847656 -4 5.671875 -4.3125 C 5.492188 -4.632812 5.25 -4.878906 4.9375 -5.046875 C 4.632812 -5.222656 4.289062 -5.3125 3.90625 -5.3125 C 3.519531 -5.3125 3.171875 -5.222656 2.859375 -5.046875 C 2.554688 -4.878906 2.316406 -4.632812 2.140625 -4.3125 C 1.960938 -4 1.875 -3.644531 1.875 -3.25 C 1.875 -2.84375 1.960938 -2.484375 2.140625 -2.171875 C 2.316406 -1.859375 2.554688 -1.613281 2.859375 -1.4375 C 3.171875 -1.257812 3.519531 -1.171875 3.90625 -1.171875 Z M 3.90625 -1.171875 "/></g></g></g><g fill="#000000" fill-opacity="1"><g transform="translate(187.72007, 232.488593)"><g><path d="M 7 -6.484375 L 4.203125 0 L 2.71875 0 L -0.078125 -6.484375 L 1.53125 -6.484375 L 3.515625 -1.859375 L 5.515625 -6.484375 Z M 7 -6.484375 "/></g></g></g><g fill="#000000" fill-opacity="1"><g transform="translate(196.544764, 232.488593)"><g><path d="M 5.046875 -1.390625 L 2.03125 -1.390625 L 1.453125 0 L -0.078125 0 L 2.8125 -6.484375 L 4.296875 -6.484375 L 7.1875 0 L 5.609375 0 Z M 4.5625 -2.53125 L 3.546875 -5.015625 L 2.515625 -2.53125 Z M 4.5625 -2.53125 "/></g></g></g><g fill="#000000" fill-opacity="1"><g transform="translate(205.554853, 232.488593)"><g><path d="M 2.109375 -5.265625 L 0.03125 -5.265625 L 0.03125 -6.484375 L 5.6875 -6.484375 L 5.6875 -5.265625 L 3.609375 -5.265625 L 3.609375 0 L 2.109375 0 Z M 2.109375 -5.265625 "/></g></g></g><g fill="#000000" fill-opacity="1"><g transform="translate(213.193031, 232.488593)"><g><path d="M 0.765625 -6.484375 L 2.265625 -6.484375 L 2.265625 0 L 0.765625 0 Z M 0.765625 -6.484375 "/></g></g></g><g fill="#000000" fill-opacity="1"><g transform="translate(218.143019, 232.488593)"><g><path d="M 3.90625 0.109375 C 3.238281 0.109375 2.632812 -0.0351562 2.09375 -0.328125 C 1.550781 -0.617188 1.125 -1.015625 0.8125 -1.515625 C 0.507812 -2.023438 0.359375 -2.601562 0.359375 -3.25 C 0.359375 -3.882812 0.507812 -4.453125 0.8125 -4.953125 C 1.125 -5.460938 1.550781 -5.863281 2.09375 -6.15625 C 2.632812 -6.445312 3.238281 -6.59375 3.90625 -6.59375 C 4.582031 -6.59375 5.1875 -6.445312 5.71875 -6.15625 C 6.257812 -5.863281 6.679688 -5.460938 6.984375 -4.953125 C 7.296875 -4.453125 7.453125 -3.882812 7.453125 -3.25 C 7.453125 -2.601562 7.296875 -2.023438 6.984375 -1.515625 C 6.679688 -1.015625 6.257812 -0.617188 5.71875 -0.328125 C 5.1875 -0.0351562 4.582031 0.109375 3.90625 0.109375 Z M 3.90625 -1.171875 C 4.289062 -1.171875 4.632812 -1.257812 4.9375 -1.4375 C 5.25 -1.613281 5.492188 -1.859375 5.671875 -2.171875 C 5.847656 -2.484375 5.9375 -2.84375 5.9375 -3.25 C 5.9375 -3.644531 5.847656 -4 5.671875 -4.3125 C 5.492188 -4.632812 5.25 -4.878906 4.9375 -5.046875 C 4.632812 -5.222656 4.289062 -5.3125 3.90625 -5.3125 C 3.519531 -5.3125 3.171875 -5.222656 2.859375 -5.046875 C 2.554688 -4.878906 2.316406 -4.632812 2.140625 -4.3125 C 1.960938 -4 1.875 -3.644531 1.875 -3.25 C 1.875 -2.84375 1.960938 -2.484375 2.140625 -2.171875 C 2.316406 -1.859375 2.554688 -1.613281 2.859375 -1.4375 C 3.171875 -1.257812 3.519531 -1.171875 3.90625 -1.171875 Z M 3.90625 -1.171875 "/></g></g></g><g fill="#000000" fill-opacity="1"><g transform="translate(227.87614, 232.488593)"><g><path d="M 6.71875 -6.484375 L 6.71875 0 L 5.484375 0 L 2.25 -3.9375 L 2.25 0 L 0.765625 0 L 0.765625 -6.484375 L 2.015625 -6.484375 L 5.234375 -2.546875 L 5.234375 -6.484375 Z M 6.71875 -6.484375 "/></g></g></g><g fill="#000000" fill-opacity="1"><g transform="translate(237.275562, 232.488593)"><g><path d="M 2.90625 0.109375 C 2.382812 0.109375 1.882812 0.0390625 1.40625 -0.09375 C 0.925781 -0.238281 0.546875 -0.421875 0.265625 -0.640625 L 0.765625 -1.765625 C 1.046875 -1.566406 1.375 -1.40625 1.75 -1.28125 C 2.132812 -1.15625 2.519531 -1.09375 2.90625 -1.09375 C 3.332031 -1.09375 3.644531 -1.15625 3.84375 -1.28125 C 4.050781 -1.40625 4.15625 -1.570312 4.15625 -1.78125 C 4.15625 -1.9375 4.09375 -2.066406 3.96875 -2.171875 C 3.851562 -2.273438 3.703125 -2.359375 3.515625 -2.421875 C 3.328125 -2.484375 3.070312 -2.550781 2.75 -2.625 C 2.257812 -2.738281 1.851562 -2.851562 1.53125 -2.96875 C 1.21875 -3.09375 0.945312 -3.28125 0.71875 -3.53125 C 0.5 -3.789062 0.390625 -4.140625 0.390625 -4.578125 C 0.390625 -4.953125 0.488281 -5.289062 0.6875 -5.59375 C 0.894531 -5.90625 1.203125 -6.148438 1.609375 -6.328125 C 2.023438 -6.503906 2.53125 -6.59375 3.125 -6.59375 C 3.539062 -6.59375 3.941406 -6.539062 4.328125 -6.4375 C 4.722656 -6.34375 5.070312 -6.203125 5.375 -6.015625 L 4.90625 -4.890625 C 4.3125 -5.222656 3.710938 -5.390625 3.109375 -5.390625 C 2.691406 -5.390625 2.378906 -5.320312 2.171875 -5.1875 C 1.972656 -5.050781 1.875 -4.875 1.875 -4.65625 C 1.875 -4.425781 1.988281 -4.257812 2.21875 -4.15625 C 2.457031 -4.050781 2.816406 -3.945312 3.296875 -3.84375 C 3.785156 -3.71875 4.1875 -3.597656 4.5 -3.484375 C 4.8125 -3.367188 5.082031 -3.179688 5.3125 -2.921875 C 5.539062 -2.671875 5.65625 -2.332031 5.65625 -1.90625 C 5.65625 -1.53125 5.550781 -1.1875 5.34375 -0.875 C 5.132812 -0.570312 4.820312 -0.332031 4.40625 -0.15625 C 4 0.0195312 3.5 0.109375 2.90625 0.109375 Z M 2.90625 0.109375 "/></g></g></g></svg>